# This file uses centimeters as units for non-parametric coordinates.

mtllib walls.mtl
g stage2:default1
v -21.405832 19.563444 21.605927
v -21.405832 -0.088608 21.605927
v -20.952724 19.563444 21.605927
v -20.952724 -0.088608 21.605927
v -20.952724 19.563444 -24.411911
v -20.952724 -0.088608 -24.411911
v -21.405832 19.563444 -24.411911
v -21.405832 -0.088608 -24.411911
v -20.952724 19.563444 -24.907240
v -20.952724 -0.088608 -24.907240
v -20.952724 19.563444 -24.411911
v -20.952724 -0.088608 -24.411911
v 20.973436 19.563444 -24.411911
v 20.973436 -0.088608 -24.411911
v 20.973436 19.563444 -24.907240
v 20.973436 -0.088608 -24.907240
v -16.866724 -0.124547 9.852455
v -15.872741 -0.124547 9.961991
v -16.866724 -0.029591 9.852455
v -15.872741 -0.029591 9.961991
v -16.757187 -0.029591 8.858472
v -15.763205 -0.029591 8.968008
v -16.757187 -0.124547 8.858472
v -15.763205 -0.124547 8.968008
v -20.952724 -0.300132 21.605927
v 20.973436 -0.300132 21.605927
v -20.952724 -0.088608 21.605927
v 20.973436 -0.088608 21.605927
v -20.952724 -0.088608 -24.411911
v 20.973436 -0.088608 -24.411911
v -20.952724 -0.300132 -24.411911
v 20.973436 -0.300132 -24.411911
vt 0.375000 0.500000
vt 0.625000 0.000000
vt 0.625000 0.250000
vt 0.375000 0.250000
vt 0.625000 0.500000
vt 0.375000 0.500000
vt 0.625000 0.750000
vt 0.375000 0.750000
vt 0.625000 1.000000
vt 0.875000 0.000000
vt 0.875000 0.250000
vt 0.375000 0.500000
vt 0.625000 0.000000
vt 0.625000 0.250000
vt 0.375000 0.250000
vt 0.625000 0.500000
vt 0.375000 0.500000
vt 0.625000 0.750000
vt 0.375000 0.750000
vt 0.625000 1.000000
vt 0.875000 0.000000
vt 0.875000 0.250000
vt 0.375000 0.000000
vt 0.625000 0.000000
vt 0.625000 0.250000
vt 0.375000 0.250000
vt 0.625000 0.500000
vt 0.375000 0.500000
vt 0.625000 0.750000
vt 0.375000 0.750000
vt 0.625000 1.000000
vt 0.375000 1.000000
vt 0.875000 0.000000
vt 0.875000 0.250000
vt 0.125000 0.000000
vt 0.125000 0.250000
vt 0.375000 0.000000
vt 0.625000 0.000000
vt 0.625000 0.250000
vt 0.375000 0.250000
vt 0.625000 0.500000
vt 0.375000 0.500000
vt 0.625000 0.750000
vt 0.375000 0.750000
vt 0.625000 1.000000
vt 0.375000 1.000000
vt 0.875000 0.000000
vt 0.875000 0.250000
vt 0.125000 0.000000
vt 0.125000 0.250000
vn 0.000000 0.000000 1.000000
vn 0.000000 0.000000 1.000000
vn 0.000000 0.000000 1.000000
vn 0.000000 0.000000 1.000000
vn 1.000000 0.000000 0.000000
vn 1.000000 0.000000 0.000000
vn 1.000000 0.000000 0.000000
vn 1.000000 0.000000 0.000000
vn 0.000000 0.000000 -1.000000
vn 0.000000 0.000000 -1.000000
vn 0.000000 0.000000 -1.000000
vn 0.000000 0.000000 -1.000000
vn -1.000000 0.000000 0.000000
vn -1.000000 0.000000 0.000000
vn -1.000000 0.000000 0.000000
vn -1.000000 0.000000 0.000000
vn 0.000000 -1.000000 0.000000
vn 0.000000 -1.000000 0.000000
vn 0.000000 -1.000000 0.000000
vn 0.000000 -1.000000 0.000000
vn 0.000000 1.000000 0.000000
vn 0.000000 1.000000 0.000000
vn 0.000000 1.000000 0.000000
vn 0.000000 1.000000 0.000000
vn -1.000000 0.000000 0.000000
vn -1.000000 0.000000 0.000000
vn -1.000000 0.000000 0.000000
vn -1.000000 0.000000 0.000000
vn 0.000000 0.000000 1.000000
vn 0.000000 0.000000 1.000000
vn 0.000000 0.000000 1.000000
vn 0.000000 0.000000 1.000000
vn 1.000000 0.000000 0.000000
vn 1.000000 0.000000 0.000000
vn 1.000000 0.000000 0.000000
vn 1.000000 0.000000 0.000000
vn 0.000000 0.000000 -1.000000
vn 0.000000 0.000000 -1.000000
vn 0.000000 0.000000 -1.000000
vn 0.000000 0.000000 -1.000000
vn 0.000000 -1.000000 0.000000
vn 0.000000 -1.000000 0.000000
vn 0.000000 -1.000000 0.000000
vn 0.000000 -1.000000 0.000000
vn 0.000000 1.000000 0.000000
vn 0.000000 1.000000 0.000000
vn 0.000000 1.000000 0.000000
vn 0.000000 1.000000 0.000000
vn -0.109536 0.000000 0.993983
vn -0.109536 0.000000 0.993983
vn -0.109536 0.000000 0.993983
vn -0.109536 0.000000 0.993983
vn 0.000000 1.000000 0.000000
vn 0.000000 1.000000 0.000000
vn 0.000000 1.000000 0.000000
vn 0.000000 1.000000 0.000000
vn 0.109537 0.000000 -0.993983
vn 0.109537 0.000000 -0.993983
vn 0.109537 0.000000 -0.993983
vn 0.109537 0.000000 -0.993983
vn 0.000000 -1.000000 0.000000
vn 0.000000 -1.000000 0.000000
vn 0.000000 -1.000000 0.000000
vn 0.000000 -1.000000 0.000000
vn 0.993983 0.000000 0.109536
vn 0.993983 0.000000 0.109536
vn 0.993983 0.000000 0.109536
vn 0.993983 0.000000 0.109536
vn -0.993983 0.000000 -0.109537
vn -0.993983 0.000000 -0.109537
vn -0.993983 0.000000 -0.109537
vn -0.993983 0.000000 -0.109537
vn 0.000000 0.000000 1.000000
vn 0.000000 0.000000 1.000000
vn 0.000000 0.000000 1.000000
vn 0.000000 0.000000 1.000000
vn 0.000000 1.000000 0.000000
vn 0.000000 1.000000 0.000000
vn 0.000000 1.000000 0.000000
vn 0.000000 1.000000 0.000000
vn 0.000000 0.000000 -1.000000
vn 0.000000 0.000000 -1.000000
vn 0.000000 0.000000 -1.000000
vn 0.000000 0.000000 -1.000000
vn 0.000000 -1.000000 0.000000
vn 0.000000 -1.000000 0.000000
vn 0.000000 -1.000000 0.000000
vn 0.000000 -1.000000 0.000000
vn 1.000000 0.000000 0.000000
vn 1.000000 0.000000 0.000000
vn 1.000000 0.000000 0.000000
vn 1.000000 0.000000 0.000000
vn -1.000000 0.000000 0.000000
vn -1.000000 0.000000 0.000000
vn -1.000000 0.000000 0.000000
vn -1.000000 0.000000 0.000000
s off
g stage2:polySurface2999 polySurface4868
usemtl stage2:initialShadingGroup
f 1/1/1 2/2/2 4/3/3 3/4/4
f 3/4/5 4/3/6 6/5/7 5/6/8
f 5/6/9 6/5/10 8/7/11 7/8/12
f 7/8/13 8/7/14 2/9/15 1/1/16
f 2/2/17 8/10/18 6/11/19 4/3/20
f 3/4/21 5/6/22 7/8/23 1/1/24
f 9/12/25 10/13/26 12/14/27 11/15/28
f 11/15/29 12/14/30 14/16/31 13/17/32
f 13/17/33 14/16/34 16/18/35 15/19/36
f 15/19/37 16/18/38 10/20/39 9/12/40
f 10/13/41 16/21/42 14/22/43 12/14/44
f 11/15/45 13/17/46 15/19/47 9/12/48
g stage2:polySurface9 polySurface4868
f 17/23/49 18/24/50 20/25/51 19/26/52
f 19/26/53 20/25/54 22/27/55 21/28/56
f 21/28/57 22/27/58 24/29/59 23/30/60
f 23/30/61 24/29/62 18/31/63 17/32/64
f 18/24/65 24/33/66 22/34/67 20/25/68
f 23/35/69 17/23/70 19/26/71 21/36/72
g stage2:polySurface2999 polySurface4868
f 25/37/73 26/38/74 28/39/75 27/40/76
f 27/40/77 28/39/78 30/41/79 29/42/80
f 29/42/81 30/41/82 32/43/83 31/44/84
f 31/44/85 32/43/86 26/45/87 25/46/88
f 26/38/89 32/47/90 30/48/91 28/39/92
f 31/49/93 25/37/94 27/40/95 29/50/96
